<svg id="Grupo_20" data-name="Grupo 20" xmlns="http://www.w3.org/2000/svg" width="302.66" height="125.205" viewBox="0 0 302.66 125.205">
  <g id="Grupo_2" data-name="Grupo 2">
    <rect id="Rectángulo_8" data-name="Rectángulo 8" width="302.66" height="75.991" fill="#fff"/>
  </g>
  <g id="Grupo_11" data-name="Grupo 11" transform="translate(16.285 21.867)">
    <g id="Grupo_3" data-name="Grupo 3" transform="translate(0 0.816)">
      <path id="Trazado_5" data-name="Trazado 5" d="M50.2,35V37.34H31.192V50.228H43.917v2.339H31.192V68.717H50.2v2.338H25.129V35Z" transform="translate(-25.129 -35.002)"/>
    </g>
    <g id="Grupo_4" data-name="Grupo 4" transform="translate(32.193 0.816)">
      <path id="Trazado_6" data-name="Trazado 6" d="M74.806,35h3.4l23.628,26.374h.272V35h2.665V71.9h-1.414L77.769,42.588h-.218V71.055H74.806Z" transform="translate(-74.806 -35.002)"/>
    </g>
    <g id="Grupo_5" data-name="Grupo 5" transform="translate(70.557)">
      <path id="Trazado_7" data-name="Trazado 7" d="M141.1,52.722a18.971,18.971,0,0,0,1.142,6.784,14.839,14.839,0,0,0,3.14,5.085,13.478,13.478,0,0,0,4.718,3.181,15.563,15.563,0,0,0,5.9,1.1,9.491,9.491,0,0,0,3.671-.734,13.978,13.978,0,0,0,3.276-1.917,17.167,17.167,0,0,0,4.663-5.669l2.556,1.632a23.218,23.218,0,0,1-2.638,3.494,17.579,17.579,0,0,1-8.034,5.016,19.394,19.394,0,0,1-5.615.761,21.342,21.342,0,0,1-8.143-1.5,19.22,19.22,0,0,1-6.267-4.051,17.956,17.956,0,0,1-4.038-5.968,18.513,18.513,0,0,1-1.428-7.219,18.774,18.774,0,0,1,.653-4.935,18.347,18.347,0,0,1,1.89-4.514,18.66,18.66,0,0,1,3.019-3.861,18.959,18.959,0,0,1,4.024-3.018,20.383,20.383,0,0,1,4.908-1.958,22.5,22.5,0,0,1,5.683-.693,17.432,17.432,0,0,1,5.316.775,18.8,18.8,0,0,1,4.432,2.052,18.543,18.543,0,0,1,3.562,2.951,21.874,21.874,0,0,1,2.678,3.494l-2.638,1.74a17.783,17.783,0,0,0-5.057-6.4,10.717,10.717,0,0,0-6.444-2.026,14.931,14.931,0,0,0-5.845,1.142,13.957,13.957,0,0,0-4.745,3.263,15.172,15.172,0,0,0-3.181,5.153A19.073,19.073,0,0,0,141.1,52.722Z" transform="translate(-134.006 -33.743)"/>
    </g>
    <g id="Grupo_6" data-name="Grupo 6" transform="translate(115.148 0.816)">
      <path id="Trazado_8" data-name="Trazado 8" d="M202.815,35h6.064V71.055h-6.064Z" transform="translate(-202.815 -35.002)"/>
    </g>
    <g id="Grupo_7" data-name="Grupo 7" transform="translate(131.027 0.816)">
      <path id="Trazado_9" data-name="Trazado 9" d="M252.387,35V37.34H233.381V50.228h12.725v2.339H233.381V68.717h19.006v2.338H227.318V35Z" transform="translate(-227.318 -35.002)"/>
    </g>
    <g id="Grupo_8" data-name="Grupo 8" transform="translate(163.22 0.816)">
      <path id="Trazado_10" data-name="Trazado 10" d="M276.995,35h3.4l23.628,26.374h.272V35h2.665V71.9h-1.414l-25.585-29.31h-.218V71.055h-2.746Z" transform="translate(-276.995 -35.002)"/>
    </g>
    <g id="Grupo_9" data-name="Grupo 9" transform="translate(202.971 0.816)">
      <path id="Trazado_11" data-name="Trazado 11" d="M338.335,35h12.018a38.555,38.555,0,0,1,9.544,1.033,16.36,16.36,0,0,1,6.661,3.317,17.316,17.316,0,0,1,4.582,5.981,17.575,17.575,0,0,1,1.537,7.368,18.657,18.657,0,0,1-1.373,7.151,16.533,16.533,0,0,1-4.024,5.832,19.107,19.107,0,0,1-6.552,3.928,25.649,25.649,0,0,1-8.932,1.441H338.335ZM344.4,68.418h6.444a16.239,16.239,0,0,0,5.737-1.006,13.048,13.048,0,0,0,4.691-2.991,14.2,14.2,0,0,0,3.154-4.88,18,18,0,0,0,1.155-6.7,16.759,16.759,0,0,0-1.087-6.131,14.21,14.21,0,0,0-3.045-4.8,13.739,13.739,0,0,0-4.663-3.127,15.393,15.393,0,0,0-5.914-1.115H344.4Z" transform="translate(-338.335 -35.002)"/>
    </g>
    <g id="Grupo_10" data-name="Grupo 10" transform="translate(245.469 0.816)">
      <path id="Trazado_12" data-name="Trazado 12" d="M428.983,35V37.34H409.977V50.228H422.7v2.339H409.977V68.717h19.006v2.338H403.914V35Z" transform="translate(-403.914 -35.002)"/>
    </g>
  </g>
  <g id="Grupo_18" data-name="Grupo 18" transform="translate(67.438 87.493)">
    <g id="Grupo_12" data-name="Grupo 12" transform="translate(0 0.815)">
      <path id="Trazado_13" data-name="Trazado 13" d="M136.229,136.269v2.339H123.178v33.715h-6.063V138.608H104.064v-2.339Z" transform="translate(-104.064 -136.269)" fill="#fff"/>
    </g>
    <g id="Grupo_13" data-name="Grupo 13" transform="translate(37.549 0.815)">
      <path id="Trazado_14" data-name="Trazado 14" d="M162.006,136.269h6.063V159.68a11.816,11.816,0,0,0,.789,4.337,10.466,10.466,0,0,0,5.805,5.955,12.642,12.642,0,0,0,9.285,0,10.378,10.378,0,0,0,5.751-5.955,12.027,12.027,0,0,0,.774-4.337V136.269h2.665V159.68a15.048,15.048,0,0,1-.9,5.221,11.2,11.2,0,0,1-2.814,4.282,13.651,13.651,0,0,1-4.908,2.909,21.33,21.33,0,0,1-7.178,1.074,18.739,18.739,0,0,1-6.593-1.074,13.952,13.952,0,0,1-4.812-2.923A12.089,12.089,0,0,1,163,164.832a14.2,14.2,0,0,1-.992-5.316Z" transform="translate(-162.006 -136.269)" fill="#fff"/>
    </g>
    <g id="Grupo_14" data-name="Grupo 14" transform="translate(100.738 0.815)">
      <path id="Trazado_15" data-name="Trazado 15" d="M259.513,136.269h6.064v36.054h-6.064Z" transform="translate(-259.513 -136.269)" fill="#fff"/>
    </g>
    <g id="Grupo_15" data-name="Grupo 15" transform="translate(116.616 0.815)">
      <path id="Trazado_16" data-name="Trazado 16" d="M284.016,136.269h12.018a38.553,38.553,0,0,1,9.544,1.034,16.368,16.368,0,0,1,6.661,3.317,17.333,17.333,0,0,1,4.582,5.982,17.583,17.583,0,0,1,1.536,7.368,18.658,18.658,0,0,1-1.373,7.151,16.523,16.523,0,0,1-4.024,5.832,19.11,19.11,0,0,1-6.553,3.928,25.664,25.664,0,0,1-8.932,1.441H284.016Zm6.063,33.416h6.444a16.243,16.243,0,0,0,5.737-1.006,13.046,13.046,0,0,0,4.69-2.991,14.19,14.19,0,0,0,3.154-4.881,18,18,0,0,0,1.155-6.7,16.759,16.759,0,0,0-1.087-6.131,14.219,14.219,0,0,0-3.045-4.8,13.741,13.741,0,0,0-4.663-3.127,15.388,15.388,0,0,0-5.913-1.115h-6.471Z" transform="translate(-284.016 -136.269)" fill="#fff"/>
    </g>
    <g id="Grupo_16" data-name="Grupo 16" transform="translate(159.114 0.815)">
      <path id="Trazado_17" data-name="Trazado 17" d="M374.663,136.269v2.339H355.657V151.5h12.725v2.338H355.657v16.151h19.006v2.338H349.594V136.269Z" transform="translate(-349.594 -136.269)" fill="#fff"/>
    </g>
    <g id="Grupo_17" data-name="Grupo 17" transform="translate(186.521)">
      <path id="Trazado_18" data-name="Trazado 18" d="M410.783,135.011l16.966,36.869h-6.172l-5.492-12.018H400.614l-5.683,12.018h-3.046l17.375-36.869Zm-9.108,22.513h13.3l-6.553-14.274Z" transform="translate(-391.886 -135.011)" fill="#fff"/>
    </g>
  </g>
</svg>
