<svg xmlns="http://www.w3.org/2000/svg" width="339.996" height="340" viewBox="0 0 339.996 340">
  <g id="logo" transform="translate(-150.56 -148.56)">
    <g id="Grupo_83" data-name="Grupo 83" transform="translate(150.56 148.56)">
      <rect id="Rectángulo_49" data-name="Rectángulo 49" width="339.996" height="339.996" transform="translate(0 0)" fill="#eb5b3d"/>
    </g>
    <g id="Grupo_84" data-name="Grupo 84" transform="translate(473.297 309.114)">
      <rect id="Rectángulo_50" data-name="Rectángulo 50" width="0.605" height="179.446" transform="translate(0 0)" fill="#fff"/>
    </g>
    <g id="Grupo_85" data-name="Grupo 85" transform="translate(486.989 148.56)">
      <rect id="Rectángulo_51" data-name="Rectángulo 51" width="3.567" height="35.622" transform="translate(0 0)" fill="#2d2dff"/>
    </g>
    <g id="Grupo_86" data-name="Grupo 86" transform="translate(150.56 148.56)">
      <rect id="Rectángulo_52" data-name="Rectángulo 52" width="339.996" height="339.996" transform="translate(0 0)" fill="none"/>
    </g>
    <g id="Grupo_87" data-name="Grupo 87" transform="translate(197.31 180.676)">
      <rect id="Rectángulo_53" data-name="Rectángulo 53" width="283.075" height="71.075" transform="translate(0)" fill="#fff"/>
    </g>
    <g id="Grupo_88" data-name="Grupo 88" transform="translate(165.689 148.56)">
      <rect id="Rectángulo_54" data-name="Rectángulo 54" width="1.213" height="80.751" transform="translate(0 0)" fill="#fff"/>
    </g>
    <g id="Grupo_99" data-name="Grupo 99" transform="translate(381.494 436.109)">
      <g id="Grupo_89" data-name="Grupo 89" transform="translate(0 2.052)">
        <path id="Trazado_59" data-name="Trazado 59" d="M769,915.03l-3.087,5.49v2.743h-1.1V920.52l-3.053-5.49h1.368l2.267,4.236,2.256-4.236Z" transform="translate(-761.76 -915.03)" fill="#fff"/>
      </g>
      <g id="Grupo_90" data-name="Grupo 90" transform="translate(12.348 2.052)">
        <path id="Trazado_60" data-name="Trazado 60" d="M795.543,915.03v7.164h4.194v1.073h-5.3V915.03Z" transform="translate(-794.44 -915.03)" fill="#fff"/>
      </g>
      <g id="Grupo_91" data-name="Grupo 91" transform="translate(19.432 2.052)">
        <path id="Trazado_61" data-name="Trazado 61" d="M814.293,915.03v7.164h4.194v1.073h-5.3V915.03Z" transform="translate(-813.19 -915.03)" fill="#fff"/>
      </g>
      <g id="Grupo_92" data-name="Grupo 92" transform="translate(26.517)">
        <path id="Trazado_62" data-name="Trazado 62" d="M837.294,911.652v1.058h-4.247v2.505h3.793v1.062h-3.793v2.539h4.409v1.073H831.94v-8.237Zm-2.4-.525h-.684l.945-1.526h1.183Z" transform="translate(-831.94 -909.6)" fill="#fff"/>
      </g>
      <g id="Grupo_93" data-name="Grupo 93" transform="translate(33.238 2.052)">
        <path id="Trazado_63" data-name="Trazado 63" d="M857,915.03l-3.635,8.622-3.635-8.622h1.311l2.369,5.936,2.29-5.936Z" transform="translate(-849.73 -915.03)" fill="#fff"/>
      </g>
      <g id="Grupo_94" data-name="Grupo 94" transform="translate(41.328 1.708)">
        <path id="Trazado_64" data-name="Trazado 64" d="M876.279,920.536h-3.166l-.877,2.165h-1.1l3.6-8.581h.068l3.6,8.581h-1.277Zm-.374-.96-1.175-3.008-1.22,3.008Z" transform="translate(-871.14 -914.12)" fill="#fff"/>
      </g>
      <g id="Grupo_95" data-name="Grupo 95" transform="translate(50.135 2.052)">
        <path id="Trazado_65" data-name="Trazado 65" d="M895.553,915.03v7.164h4.194v1.073h-5.3V915.03Z" transform="translate(-894.45 -915.03)" fill="#fff"/>
      </g>
      <g id="Grupo_96" data-name="Grupo 96" transform="translate(56.4 1.708)">
        <path id="Trazado_66" data-name="Trazado 66" d="M916.169,920.536H913l-.877,2.165h-1.1l3.6-8.581h.068l3.6,8.581h-1.277Zm-.374-.96-1.175-3.008-1.22,3.008Z" transform="translate(-911.03 -914.12)" fill="#fff"/>
      </g>
      <g id="Grupo_97" data-name="Grupo 97" transform="translate(67.988 1.708)">
        <path id="Trazado_67" data-name="Trazado 67" d="M946.838,920.536h-3.166L942.8,922.7h-1.1l3.6-8.581h.068l3.6,8.581h-1.277Zm-.378-.96-1.175-3.008-1.22,3.008Z" transform="translate(-941.7 -914.12)" fill="#fff"/>
      </g>
      <g id="Grupo_98" data-name="Grupo 98" transform="translate(76.791 2.052)">
        <path id="Trazado_68" data-name="Trazado 68" d="M966.107,915.03v7.164H970.3v1.073H965V915.03Z" transform="translate(-965 -915.03)" fill="#fff"/>
      </g>
    </g>
    <g id="Grupo_114" data-name="Grupo 114" transform="translate(308.994 454.57)">
      <g id="Grupo_100" data-name="Grupo 100" transform="translate(0 0.317)">
        <path id="Trazado_69" data-name="Trazado 69" d="M575.978,961.045a5.239,5.239,0,0,0-1.462-.23,2.619,2.619,0,0,0-1.647.469,1.585,1.585,0,0,0,.106,2.573,9.185,9.185,0,0,0,2.036,1,9.091,9.091,0,0,1,1.666.767,3.448,3.448,0,0,1,1.13,1.145,3.509,3.509,0,0,1,.45,1.859,3.464,3.464,0,0,1-.51,1.851,3.542,3.542,0,0,1-1.455,1.3,4.853,4.853,0,0,1-2.214.476,6.893,6.893,0,0,1-2.275-.382,7.756,7.756,0,0,1-1.923-.96l.759-1.356a6.269,6.269,0,0,0,1.568.839,4.873,4.873,0,0,0,1.712.344,3.076,3.076,0,0,0,1.787-.529,1.779,1.779,0,0,0,.767-1.568,1.712,1.712,0,0,0-.642-1.4,6.982,6.982,0,0,0-1.806-.979,15.021,15.021,0,0,1-1.787-.793,3.831,3.831,0,0,1-1.224-1.066,2.754,2.754,0,0,1-.51-1.7,3.084,3.084,0,0,1,1.05-2.426,4.191,4.191,0,0,1,2.724-.979,7.523,7.523,0,0,1,3.828,1.02l-.654,1.322A8.66,8.66,0,0,0,575.978,961.045Z" transform="translate(-569.88 -959.3)" fill="#fff"/>
      </g>
      <g id="Grupo_101" data-name="Grupo 101" transform="translate(11.222 0.389)">
        <path id="Trazado_70" data-name="Trazado 70" d="M601.292,959.49v12.741H599.58V959.49Z" transform="translate(-599.58 -959.49)" fill="#fff"/>
      </g>
      <g id="Grupo_102" data-name="Grupo 102" transform="translate(15.809 0.249)">
        <path id="Trazado_71" data-name="Trazado 71" d="M620.682,971.759a7.807,7.807,0,0,1-2.3.389,7.229,7.229,0,0,1-3.506-.82,5.822,5.822,0,0,1-2.335-2.248,6.314,6.314,0,0,1-.82-3.208,7.1,7.1,0,0,1,.88-3.6,5.993,5.993,0,0,1,2.38-2.335,6.77,6.77,0,0,1,3.276-.812,7.784,7.784,0,0,1,2.025.257,7.424,7.424,0,0,1,1.712.68l-.563,1.568a6.478,6.478,0,0,0-1.421-.555,5.816,5.816,0,0,0-1.542-.238,5.529,5.529,0,0,0-2.618.6,4.243,4.243,0,0,0-1.753,1.708,5.249,5.249,0,0,0-.616,2.592,4.834,4.834,0,0,0,.616,2.452,4.22,4.22,0,0,0,1.746,1.666,5.473,5.473,0,0,0,2.573.589,6.463,6.463,0,0,0,1.3-.132,3.566,3.566,0,0,0,1.058-.378v-2.52h-2.539v-1.64H622.5v5.146A5.974,5.974,0,0,1,620.682,971.759Z" transform="translate(-611.72 -959.12)" fill="#fff"/>
      </g>
      <g id="Grupo_103" data-name="Grupo 103" transform="translate(29.69 0.393)">
        <path id="Trazado_72" data-name="Trazado 72" d="M650.58,969.252a2.988,2.988,0,0,0,1.1,1.077,3.062,3.062,0,0,0,1.542.4,3.256,3.256,0,0,0,1.594-.389,2.831,2.831,0,0,0,1.118-1.073,2.946,2.946,0,0,0,.4-1.534V959.5h1.674v8.282a4.548,4.548,0,0,1-.635,2.4,4.323,4.323,0,0,1-1.727,1.621,5.172,5.172,0,0,1-2.433.574,5.084,5.084,0,0,1-2.414-.574,4.255,4.255,0,0,1-1.719-1.621,4.614,4.614,0,0,1-.627-2.4V959.5h1.715v8.229A2.922,2.922,0,0,0,650.58,969.252Z" transform="translate(-648.46 -959.5)" fill="#fff"/>
      </g>
      <g id="Grupo_104" data-name="Grupo 104" transform="translate(42.752 0.389)">
        <path id="Trazado_73" data-name="Trazado 73" d="M684.742,959.49v12.741H683.03V959.49Z" transform="translate(-683.03 -959.49)" fill="#fff"/>
      </g>
      <g id="Grupo_105" data-name="Grupo 105" transform="translate(48.129 0.389)">
        <path id="Trazado_74" data-name="Trazado 74" d="M705.546,959.49v1.64h-6.574v3.877h5.868v1.64h-5.868v3.93h6.82v1.655H697.26V959.49h8.286Z" transform="translate(-697.26 -959.49)" fill="#fff"/>
      </g>
      <g id="Grupo_106" data-name="Grupo 106" transform="translate(59.638)">
        <path id="Trazado_75" data-name="Trazado 75" d="M738.825,958.849v13.164h-.053l-9.359-9.5.034,9.076H727.72V958.46h.091l9.34,9.6-.038-9.215Z" transform="translate(-727.72 -958.46)" fill="#fff"/>
      </g>
      <g id="Grupo_107" data-name="Grupo 107" transform="translate(73.474 0.389)">
        <path id="Trazado_76" data-name="Trazado 76" d="M772.8,959.49v1.64H769.38v11.1h-1.712v-11.1H764.34v-1.64Z" transform="translate(-764.34 -959.49)" fill="#fff"/>
      </g>
      <g id="Grupo_108" data-name="Grupo 108" transform="translate(84.662 0.389)">
        <path id="Trazado_77" data-name="Trazado 77" d="M802.236,959.49v1.64h-6.574v3.877h5.868v1.64h-5.868v3.93h6.82v1.655H793.95V959.49h8.286Z" transform="translate(-793.95 -959.49)" fill="#fff"/>
      </g>
      <g id="Grupo_109" data-name="Grupo 109" transform="translate(101.74)">
        <path id="Trazado_78" data-name="Trazado 78" d="M850.255,958.849v13.164H850.2l-9.359-9.5.034,9.076H839.15V958.46h.091l9.34,9.6-.038-9.215Z" transform="translate(-839.15 -958.46)" fill="#fff"/>
      </g>
      <g id="Grupo_110" data-name="Grupo 110" transform="translate(116.51 0.389)">
        <path id="Trazado_79" data-name="Trazado 79" d="M879.952,959.49v12.741H878.24V959.49Z" transform="translate(-878.24 -959.49)" fill="#fff"/>
      </g>
      <g id="Grupo_111" data-name="Grupo 111" transform="translate(120.775 0.389)">
        <path id="Trazado_80" data-name="Trazado 80" d="M900.774,959.49l-5.622,13.341L889.53,959.49h2.025l3.665,9.181,3.544-9.181Z" transform="translate(-889.53 -959.49)" fill="#fff"/>
      </g>
      <g id="Grupo_112" data-name="Grupo 112" transform="translate(134.555 0.389)">
        <path id="Trazado_81" data-name="Trazado 81" d="M934.286,959.49v1.64h-6.574v3.877h5.868v1.64h-5.868v3.93h6.82v1.655H926V959.49h8.286Z" transform="translate(-926 -959.49)" fill="#fff"/>
      </g>
      <g id="Grupo_113" data-name="Grupo 113" transform="translate(146.068 0.389)">
        <path id="Trazado_82" data-name="Trazado 82" d="M958.182,959.49v11.086h6.484v1.655h-8.2V959.49Z" transform="translate(-956.47 -959.49)" fill="#fff"/>
      </g>
    </g>
    <g id="Grupo_123" data-name="Grupo 123" transform="translate(212.54 201.125)">
      <g id="Grupo_115" data-name="Grupo 115" transform="translate(0 0.767)">
        <path id="Trazado_83" data-name="Trazado 83" d="M338.045,289.71V291.9H320.268v12.053h11.9v2.188h-11.9v15.106h17.777v2.188H314.6V289.71Z" transform="translate(-314.6 -289.71)"/>
      </g>
      <g id="Grupo_116" data-name="Grupo 116" transform="translate(30.11 0.767)">
        <path id="Trazado_84" data-name="Trazado 84" d="M394.29,289.71h3.178l22.1,24.669h.253V289.71h2.494v34.508h-1.322L397.063,296.8h-.2v26.626H394.29Z" transform="translate(-394.29 -289.71)"/>
      </g>
      <g id="Grupo_117" data-name="Grupo 117" transform="translate(66)">
        <path id="Trazado_85" data-name="Trazado 85" d="M495.907,305.435a17.687,17.687,0,0,0,1.069,6.344,13.927,13.927,0,0,0,2.936,4.757,12.58,12.58,0,0,0,4.413,2.974,14.542,14.542,0,0,0,5.52,1.031,8.889,8.889,0,0,0,3.435-.688,13.046,13.046,0,0,0,3.064-1.791,16.083,16.083,0,0,0,4.364-5.3l2.392,1.526a21.628,21.628,0,0,1-2.467,3.268,16.689,16.689,0,0,1-3.295,2.773,16.521,16.521,0,0,1-4.22,1.919,18.169,18.169,0,0,1-5.252.71,20.007,20.007,0,0,1-7.617-1.4,17.96,17.96,0,0,1-5.86-3.79,16.725,16.725,0,0,1-3.775-5.581,17.277,17.277,0,0,1-1.334-6.752,17.545,17.545,0,0,1,.612-4.617,17.058,17.058,0,0,1,1.768-4.22,17.56,17.56,0,0,1,2.822-3.612,17.886,17.886,0,0,1,3.763-2.822,19.108,19.108,0,0,1,4.591-1.833,21.126,21.126,0,0,1,5.316-.65,16.318,16.318,0,0,1,4.972.725,17.571,17.571,0,0,1,4.145,1.919,17.38,17.38,0,0,1,3.333,2.758,20.45,20.45,0,0,1,2.505,3.268l-2.467,1.628a16.638,16.638,0,0,0-4.73-5.989,10.024,10.024,0,0,0-6.027-1.893,13.927,13.927,0,0,0-5.467,1.069,13.017,13.017,0,0,0-4.436,3.053,14.177,14.177,0,0,0-2.974,4.817A17.437,17.437,0,0,0,495.907,305.435Z" transform="translate(-489.28 -287.68)"/>
      </g>
      <g id="Grupo_118" data-name="Grupo 118" transform="translate(107.695 0.767)">
        <path id="Trazado_86" data-name="Trazado 86" d="M599.63,289.71H605.3v33.722H599.63Z" transform="translate(-599.63 -289.71)"/>
      </g>
      <g id="Grupo_119" data-name="Grupo 119" transform="translate(122.548 0.767)">
        <path id="Trazado_87" data-name="Trazado 87" d="M662.388,289.71V291.9H644.611v12.053h11.9v2.188h-11.9v15.106h17.777v2.188H638.94V289.71Z" transform="translate(-638.94 -289.71)"/>
      </g>
      <g id="Grupo_120" data-name="Grupo 120" transform="translate(152.657 0.767)">
        <path id="Trazado_88" data-name="Trazado 88" d="M718.63,289.71h3.178l22.1,24.669h.253V289.71h2.494v34.508h-1.322L721.4,296.8h-.2v26.626H718.63Z" transform="translate(-718.63 -289.71)"/>
      </g>
      <g id="Grupo_121" data-name="Grupo 121" transform="translate(189.833 0.767)">
        <path id="Trazado_89" data-name="Trazado 89" d="M817.024,289.71h11.241a35.92,35.92,0,0,1,8.924.967,15.3,15.3,0,0,1,6.231,3.1,16.244,16.244,0,0,1,4.285,5.6,16.456,16.456,0,0,1,1.436,6.892,17.479,17.479,0,0,1-1.285,6.688,15.5,15.5,0,0,1-3.763,5.456,17.841,17.841,0,0,1-6.129,3.676,24.006,24.006,0,0,1-8.354,1.349H817.02V289.71Zm5.671,31.255h6.027a15.206,15.206,0,0,0,5.365-.941,12.255,12.255,0,0,0,4.387-2.8,13.245,13.245,0,0,0,2.951-4.564,16.809,16.809,0,0,0,1.081-6.268,15.689,15.689,0,0,0-1.016-5.736,13.3,13.3,0,0,0-2.849-4.489,12.837,12.837,0,0,0-4.36-2.924,14.393,14.393,0,0,0-5.532-1.043H822.7Z" transform="translate(-817.02 -289.71)"/>
      </g>
      <g id="Grupo_122" data-name="Grupo 122" transform="translate(229.581 0.767)">
        <path id="Trazado_90" data-name="Trazado 90" d="M945.669,289.71V291.9H927.891v12.053h11.9v2.188h-11.9v15.106h17.777v2.188H922.22V289.71Z" transform="translate(-922.22 -289.71)"/>
      </g>
    </g>
    <g id="Grupo_130" data-name="Grupo 130" transform="translate(260.378 262.508)">
      <g id="Grupo_124" data-name="Grupo 124" transform="translate(0 0.763)">
        <path id="Trazado_91" data-name="Trazado 91" d="M471.3,452.16v2.188H459.089v31.534h-5.671V454.348H441.21V452.16H471.3Z" transform="translate(-441.21 -452.16)" fill="#fff"/>
      </g>
      <g id="Grupo_125" data-name="Grupo 125" transform="translate(35.124 0.763)">
        <path id="Trazado_92" data-name="Trazado 92" d="M534.17,452.16h5.671v21.9a11.089,11.089,0,0,0,.737,4.058,9.814,9.814,0,0,0,5.43,5.569,11.812,11.812,0,0,0,8.687,0,9.714,9.714,0,0,0,5.38-5.569,11.242,11.242,0,0,0,.725-4.058v-21.9h2.494v21.9a14.07,14.07,0,0,1-.839,4.882,10.442,10.442,0,0,1-2.634,4.005,12.76,12.76,0,0,1-4.591,2.72,19.959,19.959,0,0,1-6.714,1.005,17.529,17.529,0,0,1-6.166-1.005,12.981,12.981,0,0,1-4.5-2.736,11.317,11.317,0,0,1-2.747-4.058,13.282,13.282,0,0,1-.929-4.972V452.16Z" transform="translate(-534.17 -452.16)" fill="#fff"/>
      </g>
      <g id="Grupo_126" data-name="Grupo 126" transform="translate(94.225 0.763)">
        <path id="Trazado_93" data-name="Trazado 93" d="M690.59,452.16h5.671v33.722H690.59Z" transform="translate(-690.59 -452.16)" fill="#fff"/>
      </g>
      <g id="Grupo_127" data-name="Grupo 127" transform="translate(109.07 0.763)">
        <path id="Trazado_94" data-name="Trazado 94" d="M729.884,452.16h11.241a35.921,35.921,0,0,1,8.924.967,15.3,15.3,0,0,1,6.231,3.1,16.244,16.244,0,0,1,4.285,5.6A16.456,16.456,0,0,1,762,468.717a17.48,17.48,0,0,1-1.285,6.688,15.5,15.5,0,0,1-3.763,5.456,17.841,17.841,0,0,1-6.129,3.676,24.006,24.006,0,0,1-8.354,1.349H729.88V452.16Zm5.671,31.255h6.026a15.205,15.205,0,0,0,5.365-.941,12.255,12.255,0,0,0,4.387-2.8,13.246,13.246,0,0,0,2.951-4.564,16.811,16.811,0,0,0,1.081-6.268,15.69,15.69,0,0,0-1.016-5.736,13.3,13.3,0,0,0-2.849-4.489,12.838,12.838,0,0,0-4.36-2.924,14.393,14.393,0,0,0-5.531-1.043h-6.053Z" transform="translate(-729.88 -452.16)" fill="#fff"/>
      </g>
      <g id="Grupo_128" data-name="Grupo 128" transform="translate(148.822 0.763)">
        <path id="Trazado_95" data-name="Trazado 95" d="M858.539,452.16v2.188H840.761V466.4h11.9v2.188h-11.9v15.106h17.777v2.188H835.09V452.16Z" transform="translate(-835.09 -452.16)" fill="#fff"/>
      </g>
      <g id="Grupo_129" data-name="Grupo 129" transform="translate(174.451 0)">
        <path id="Trazado_96" data-name="Trazado 96" d="M920.6,450.14l15.869,34.485h-5.773l-5.139-11.241H911.085l-5.316,11.241H902.92l16.251-34.485Zm-8.52,21.057h12.435l-6.128-13.353Z" transform="translate(-902.92 -450.14)" fill="#fff"/>
      </g>
    </g>
    <g id="Grupo_134" data-name="Grupo 134" transform="translate(174.764 427.83)">
      <g id="Grupo_131" data-name="Grupo 131" transform="translate(11.086)">
        <rect id="Rectángulo_55" data-name="Rectángulo 55" width="8.932" height="8.887" fill="#1b1c1c"/>
      </g>
      <g id="Grupo_132" data-name="Grupo 132" transform="translate(0 15.061)">
        <rect id="Rectángulo_56" data-name="Rectángulo 56" width="11.037" height="10.991" fill="#1b1c1c"/>
      </g>
      <g id="Grupo_133" data-name="Grupo 133" transform="translate(18.287 16.368)">
        <rect id="Rectángulo_57" data-name="Rectángulo 57" width="16.368" height="16.319" fill="#1b1c1c"/>
      </g>
    </g>
  </g>
</svg>
