<svg xmlns="http://www.w3.org/2000/svg" width="17.454" height="13.963" viewBox="0 0 17.454 13.963">
  <path id="Trazado_4" data-name="Trazado 4" d="M17.709,10.982a1.751,1.751,0,0,1,1.745-1.745V5.745A1.751,1.751,0,0,0,17.709,4H3.745A1.743,1.743,0,0,0,2.009,5.745V9.236A1.745,1.745,0,0,1,2,12.727v3.491a1.751,1.751,0,0,0,1.745,1.745H17.709a1.751,1.751,0,0,0,1.745-1.745V12.727A1.751,1.751,0,0,1,17.709,10.982Zm-3.857,4.189-3.124-2.007L7.6,15.171l.943-3.6L5.674,9.228l3.7-.218,1.353-3.438,1.344,3.447,3.7.218L12.9,11.584l.951,3.587Z" transform="translate(-2 -4)" fill="rgba(255,255,255,0.89)"/>
</svg>
